<?xml version="1.0" standalone="no"?>
<!DOCTYPE svg PUBLIC "-//W3C//DTD SVG 20010904//EN"
 "http://www.w3.org/TR/2001/REC-SVG-20010904/DTD/svg10.dtd">
<svg version="1.0" xmlns="http://www.w3.org/2000/svg"
 width="891.000000pt" height="1280.000000pt" viewBox="0 0 891.000000 1280.000000"
 preserveAspectRatio="xMidYMid meet">
<metadata>
Created by potrace 1.15, written by Peter Selinger 2001-2017
</metadata>
<g transform="translate(0.000000,1280.000000) scale(0.100000,-0.100000)"
fill="#000000" stroke="none">
<path d="M4131 12789 c-158 -31 -255 -148 -346 -417 l-29 -82 18 -142 c24
-201 65 -439 161 -953 148 -795 174 -961 200 -1305 30 -390 69 -509 304 -923
131 -232 173 -321 207 -437 27 -92 41 -216 30 -273 -7 -40 -41 -56 -77 -36
-23 12 -23 11 -3 179 6 52 3 64 -46 175 -29 66 -76 181 -105 255 -29 74 -83
205 -120 290 -111 258 -142 339 -214 577 -39 125 -86 269 -106 318 -38 98
-115 338 -151 477 -23 85 -39 211 -70 528 -32 335 -70 453 -218 672 -55 83
-121 181 -146 219 -44 68 -47 71 -130 105 -148 61 -188 74 -236 74 -120 0
-188 -54 -274 -220 -30 -58 -72 -124 -94 -147 l-38 -43 16 -82 c22 -115 34
-238 46 -484 16 -332 18 -345 135 -774 30 -113 80 -326 111 -475 126 -615 261
-1182 389 -1630 64 -224 66 -234 74 -390 4 -91 4 -273 -2 -420 -17 -452 -14
-870 7 -1026 l18 -136 -35 -54 c-85 -133 -148 -299 -125 -327 9 -10 13 -48 13
-106 0 -73 -6 -108 -28 -176 -47 -142 -55 -155 -104 -158 -23 -2 -84 9 -138
23 -96 26 -98 28 -159 93 -33 37 -164 173 -291 302 -330 337 -389 407 -591
700 -131 190 -243 308 -392 409 -258 174 -318 199 -542 221 -120 12 -203 31
-269 61 -54 25 -75 25 -241 -2 -137 -23 -278 -65 -346 -105 -103 -61 -182
-186 -187 -297 l-2 -50 80 -57 c44 -32 170 -110 279 -174 249 -146 338 -209
436 -313 58 -61 91 -107 126 -177 l49 -95 115 -62 c180 -96 207 -120 270 -238
48 -92 63 -111 163 -203 73 -69 128 -131 166 -188 121 -180 148 -244 187 -442
31 -156 50 -210 109 -298 63 -95 138 -174 303 -318 245 -215 316 -299 367
-432 60 -158 179 -376 347 -635 35 -55 91 -147 122 -205 78 -140 79 -141 239
-309 225 -236 246 -273 303 -533 20 -92 27 -152 28 -238 l1 -115 -59 -150
c-104 -267 -106 -276 -109 -659 -4 -327 -4 -332 -35 -471 -48 -216 -80 -375
-86 -430 -5 -47 -5 -49 10 -30 59 76 155 316 195 491 21 90 23 125 25 374 1
307 0 298 79 540 30 91 61 203 69 249 20 106 20 301 1 456 -8 66 -15 125 -15
131 0 7 32 1 84 -17 120 -42 189 -47 246 -17 25 13 45 29 45 37 0 8 -28 20
-75 32 -162 41 -289 121 -470 293 -69 66 -156 149 -194 185 -63 60 -82 88
-199 301 -251 455 -696 1217 -720 1232 -7 4 -35 8 -64 8 l-52 0 -81 92 c-194
223 -333 500 -380 763 -11 57 -20 78 -51 113 -21 24 -60 83 -86 130 -39 71
-71 110 -170 207 -66 66 -129 136 -139 155 -9 19 -19 68 -22 108 -6 98 -36 98
-56 1 -9 -44 -34 -44 -76 0 -21 21 -52 42 -69 46 -17 4 -31 10 -31 15 0 4 11
33 25 64 29 65 31 95 10 136 -26 50 -76 33 -90 -29 -15 -69 -87 -80 -117 -18
-9 18 -56 83 -106 145 -49 63 -100 135 -113 162 -18 39 -29 50 -54 55 -32 6
-68 32 -191 138 -75 65 -108 84 -324 185 -75 35 -100 69 -100 133 0 38 5 48
51 92 l51 49 82 -6 c108 -9 258 7 381 40 55 15 116 26 135 25 107 -4 310 -66
418 -127 156 -89 413 -255 459 -297 30 -28 63 -67 74 -89 11 -21 26 -38 33
-38 19 0 38 -32 74 -128 45 -119 76 -159 246 -322 83 -80 228 -224 321 -320
512 -525 525 -536 664 -528 114 7 160 33 356 204 173 152 227 216 243 292 10
41 9 42 -16 42 -25 0 -52 -25 -187 -169 -49 -53 -96 -81 -133 -81 -19 0 -19 1
0 68 10 37 30 141 44 231 27 176 55 271 97 339 27 41 29 42 81 42 100 0 155
16 202 60 25 23 93 64 161 96 l118 56 95 -1 c52 -1 128 -4 169 -7 66 -6 78
-10 113 -42 38 -34 39 -35 110 -30 64 5 76 3 127 -24 31 -17 90 -43 131 -60
159 -63 348 -178 557 -339 67 -52 153 -114 192 -138 57 -36 72 -51 86 -87 14
-37 23 -45 63 -60 99 -36 110 -43 138 -80 61 -84 85 -103 164 -128 42 -14 106
-42 141 -62 138 -78 279 -144 353 -164 43 -12 80 -19 83 -17 3 3 0 22 -7 41
-19 57 -69 84 -194 101 -39 5 -61 17 -115 61 -75 62 -180 119 -240 129 -31 5
-45 14 -61 40 -33 53 -108 114 -221 182 -153 91 -181 113 -260 212 -39 49 -90
103 -113 119 -22 16 -156 88 -296 159 -293 149 -392 185 -750 274 -189 47
-237 56 -245 46 -26 -34 -67 -49 -147 -54 l-83 -6 -77 -73 c-88 -84 -154 -111
-236 -100 -25 3 -46 7 -48 9 -9 9 -28 458 -27 662 0 211 3 271 22 385 13 76
23 179 23 235 0 236 -133 911 -258 1310 -30 93 -38 137 -39 195 0 73 -3 81
-73 225 -86 179 -94 214 -86 419 l6 151 -71 400 c-152 860 -197 1214 -172
1375 24 152 90 219 226 228 89 6 130 -13 204 -93 39 -44 73 -102 142 -244 50
-102 113 -217 140 -256 79 -116 92 -158 109 -365 6 -74 17 -169 25 -210 8 -41
20 -131 25 -199 7 -92 17 -144 39 -205 16 -44 72 -202 126 -351 62 -174 107
-318 126 -404 25 -117 36 -149 95 -260 37 -69 100 -209 141 -311 63 -154 76
-199 83 -268 5 -51 15 -93 27 -111 10 -15 32 -49 50 -75 36 -54 48 -112 62
-302 10 -131 29 -193 68 -224 45 -35 82 -35 184 3 141 52 237 71 369 71 98 1
129 -3 205 -27 106 -32 116 -33 146 -8 l24 19 -41 40 c-57 57 -97 66 -279 58
-82 -3 -186 -9 -230 -12 l-81 -6 -12 88 c-23 157 -91 337 -249 656 -246 497
-297 646 -322 948 -6 69 -16 172 -21 230 -6 58 -15 169 -20 246 -12 177 -36
296 -160 804 -144 589 -177 788 -167 1005 18 356 160 524 402 475 52 -10 66
-19 108 -63 68 -72 138 -220 182 -387 20 -74 103 -382 185 -685 209 -771 298
-1137 340 -1405 9 -61 28 -109 100 -255 143 -288 232 -565 399 -1235 51 -201
96 -379 102 -397 8 -25 36 -48 157 -126 133 -85 152 -95 197 -96 122 -2 206
-27 497 -144 125 -50 231 -88 234 -84 12 12 -18 66 -55 100 -52 47 -242 142
-342 170 -46 14 -137 35 -202 48 -112 23 -130 37 -51 38 39 1 43 6 83 116 18
50 104 230 191 401 175 343 218 440 279 622 48 143 121 298 220 467 39 65 84
156 100 201 17 45 62 147 102 226 176 350 238 517 364 969 150 542 205 702
258 758 19 20 53 62 76 94 54 73 91 97 155 97 181 0 312 -230 323 -570 6 -183
-11 -274 -107 -560 -37 -113 -73 -239 -80 -280 -23 -152 -41 -192 -139 -320
-58 -76 -70 -115 -86 -289 -18 -183 -27 -218 -134 -496 -94 -243 -98 -257
-111 -380 -24 -234 -103 -428 -310 -760 -109 -175 -206 -371 -249 -504 -17
-52 -31 -100 -31 -107 0 -7 26 -36 59 -64 32 -28 67 -66 77 -85 21 -39 28 -41
64 -20 40 23 55 18 153 -47 52 -35 176 -108 276 -163 100 -55 190 -107 200
-117 10 -9 21 -35 25 -58 4 -24 17 -52 31 -66 27 -27 61 -33 51 -8 -3 8 -2 12
4 9 6 -3 10 -12 10 -19 0 -7 14 -44 31 -81 39 -86 91 -279 120 -442 19 -103
23 -165 24 -318 0 -210 -9 -284 -76 -620 -76 -376 -88 -455 -119 -722 -53
-472 -137 -978 -211 -1278 -39 -158 -68 -245 -149 -455 -108 -275 -132 -372
-191 -759 -38 -252 -78 -414 -159 -641 -94 -262 -109 -324 -120 -490 -30 -487
-35 -598 -35 -815 0 -132 4 -249 8 -259 7 -18 9 -18 33 5 43 40 48 59 55 219
5 109 16 193 35 285 28 127 28 137 26 412 -3 347 0 365 113 648 46 116 93 244
104 285 32 119 70 351 86 525 7 88 19 182 25 208 12 55 54 141 133 275 98 165
125 269 272 1062 109 590 115 632 115 860 1 252 13 372 50 491 16 52 36 124
44 160 63 274 74 967 21 1348 l-15 105 75 220 c42 121 137 414 211 650 74 237
162 514 196 615 l61 184 -7 96 c-20 305 -21 286 7 343 14 29 28 76 32 103 3
28 25 115 47 195 72 257 82 379 53 602 -47 357 -186 559 -384 558 -84 -1 -121
-18 -209 -100 l-69 -65 -47 -260 c-55 -302 -105 -525 -152 -680 -19 -60 -57
-209 -85 -330 -55 -240 -78 -324 -115 -429 -33 -91 -30 -87 -121 -180 -78 -79
-81 -83 -103 -166 -40 -151 -59 -261 -74 -440 -17 -191 -25 -226 -66 -282 -33
-46 -97 -98 -119 -98 -9 0 -35 9 -58 19 -80 37 -82 83 -11 235 28 61 68 152
88 201 21 50 60 128 88 174 73 119 125 264 294 816 129 424 128 420 198 680
76 279 100 355 193 596 190 494 251 766 252 1119 0 161 -3 205 -18 255 -48
156 -184 338 -299 396 -57 29 -139 22 -231 -20 -37 -16 -84 -35 -105 -42 -37
-11 -38 -13 -61 -96 -13 -47 -64 -184 -113 -306 -121 -301 -135 -342 -249
-741 -127 -442 -157 -527 -289 -821 -430 -957 -761 -1588 -1051 -1998 -7 -10
-112 58 -146 95 -48 51 -126 294 -278 872 -136 516 -209 734 -332 1000 -73
157 -89 216 -134 501 -38 246 -87 484 -138 675 -22 80 -73 282 -115 450 -89
362 -147 544 -219 694 -88 181 -145 239 -292 298 -72 28 -117 32 -194 17z
m4474 -2216 c56 -70 130 -217 150 -297 61 -243 26 -650 -80 -933 -14 -36 -25
-86 -25 -112 0 -25 -9 -82 -20 -126 -17 -69 -19 -99 -14 -221 8 -168 7 -174
-88 -347 -81 -148 -103 -210 -152 -442 -51 -239 -79 -335 -152 -532 -35 -95
-76 -210 -90 -255 -15 -46 -28 -85 -30 -87 -2 -2 -86 59 -186 135 -101 76
-225 170 -277 209 l-93 70 5 66 c3 40 19 101 40 155 45 117 55 168 73 363 24
273 43 330 157 459 88 100 168 247 231 422 25 69 56 152 70 186 34 81 52 197
70 439 21 290 90 618 161 773 52 111 71 126 172 131 29 1 39 -6 78 -56z m-650
-3343 c3 -5 2 -10 -4 -10 -5 0 -13 5 -16 10 -3 6 -2 10 4 10 5 0 13 -4 16 -10z"/>
<path d="M8317 9500 c-8 -38 7 -80 29 -80 8 0 44 -16 80 -36 42 -24 73 -34 93
-32 l30 3 -19 42 c-16 37 -28 46 -107 84 -48 24 -91 45 -94 47 -4 1 -9 -11
-12 -28z"/>
<path d="M8000 8572 c0 -14 93 -79 230 -160 74 -44 136 -79 137 -78 1 1 -3 19
-9 40 -26 83 -136 169 -249 195 -53 13 -109 14 -109 3z"/>
<path d="M7649 7622 c19 -35 85 -85 151 -114 36 -16 76 -42 90 -58 14 -16 53
-45 88 -64 70 -39 76 -33 43 39 -41 91 -107 140 -242 178 -141 40 -142 41
-130 19z"/>
<path d="M4545 11153 c-38 -8 -117 -33 -173 -55 -104 -41 -104 -42 -98 -72 4
-16 7 -31 9 -32 1 -2 41 8 87 22 170 49 222 58 346 59 133 0 136 2 82 53 -48
44 -128 52 -253 25z"/>
<path d="M7470 10785 c0 -47 59 -108 136 -141 54 -24 192 -62 198 -56 11 10
-36 78 -68 100 -19 13 -77 39 -131 58 -54 19 -106 39 -116 45 -15 8 -19 6 -19
-6z"/>
<path d="M3557 10663 c-61 -3 -85 -9 -112 -28 -20 -13 -54 -26 -78 -30 -135
-21 -167 -28 -196 -46 -111 -68 114 -77 279 -12 72 29 190 100 190 114 0 5 -1
8 -2 7 -2 -1 -38 -4 -81 -5z"/>
<path d="M4883 9885 c-65 -18 -235 -83 -247 -95 -4 -4 4 -16 18 -25 43 -29
124 -16 249 39 77 34 116 46 135 42 34 -7 55 6 50 30 -3 16 -14 19 -78 21 -41
1 -98 -4 -127 -12z"/>
<path d="M7090 9728 c0 -44 6 -49 75 -77 85 -34 176 -85 252 -142 36 -28 67
-48 70 -46 2 3 1 21 -3 41 -15 83 -71 127 -234 186 -47 17 -100 40 -118 51
-18 10 -35 19 -38 19 -2 0 -4 -15 -4 -32z"/>
<path d="M4790 9724 c-52 -14 -134 -43 -181 -65 -47 -21 -94 -39 -103 -39 -36
0 -7 -26 43 -38 62 -15 135 -4 323 52 65 20 147 38 183 42 65 7 65 7 48 27
-48 53 -161 61 -313 21z"/>
<path d="M6947 9644 c-4 -4 -7 -22 -7 -41 0 -28 5 -35 28 -43 15 -6 57 -26 93
-45 37 -19 90 -40 119 -45 32 -6 70 -23 99 -44 95 -69 139 -81 165 -44 14 20
14 24 0 39 -24 27 -140 84 -312 155 -86 36 -162 67 -168 70 -5 2 -13 1 -17 -2z"/>
<path d="M3685 9475 c-27 -7 -99 -34 -160 -58 -60 -25 -128 -49 -150 -52 -55
-10 -60 -15 -35 -32 56 -40 151 -33 259 17 90 42 221 120 221 131 0 13 -77 10
-135 -6z"/>
<path d="M3620 9306 c-30 -6 -75 -22 -101 -34 -80 -39 -145 -120 -86 -108 150
31 213 56 271 106 28 25 34 35 24 41 -17 11 -41 10 -108 -5z"/>
<path d="M5230 8381 c-36 -10 -105 -32 -155 -49 -85 -29 -90 -32 -90 -59 0
-33 -2 -33 126 0 52 14 161 33 242 43 91 10 146 21 144 27 -17 53 -151 72
-267 38z"/>
<path d="M6470 8272 c0 -15 75 -79 117 -100 21 -11 78 -36 128 -57 119 -49
168 -79 210 -128 28 -33 35 -37 37 -21 10 138 -73 207 -332 273 -69 18 -133
34 -142 37 -10 3 -18 1 -18 -4z"/>
<path d="M4085 8020 c-22 -16 -96 -52 -165 -81 -158 -65 -226 -100 -270 -137
l-35 -30 38 -7 c88 -17 181 13 358 118 125 73 144 81 209 81 52 1 55 2 58 28
2 18 -2 28 -15 32 -18 5 -136 27 -137 25 -1 0 -19 -14 -41 -29z"/>
<path d="M4531 8004 c-19 -43 -13 -62 34 -94 65 -45 122 -67 279 -106 145 -36
254 -79 293 -116 13 -12 25 -19 29 -16 12 13 -11 83 -38 114 -41 46 -110 76
-277 119 -165 42 -233 67 -277 100 l-31 24 -12 -25z"/>
<path d="M4923 6883 c-7 -2 -13 -15 -13 -27 0 -53 23 -62 332 -126 313 -64
385 -88 538 -175 73 -41 122 -61 211 -84 129 -33 151 -43 321 -143 168 -99
236 -127 388 -159 159 -33 208 -51 440 -164 146 -71 183 -93 220 -134 25 -26
65 -64 90 -84 54 -42 199 -122 207 -113 3 3 -6 30 -21 60 -39 79 -130 159
-276 241 -118 66 -208 128 -240 165 -8 10 -44 24 -80 33 -36 9 -152 43 -259
76 -107 33 -239 71 -293 83 -91 20 -104 26 -163 76 -36 29 -90 69 -122 88 -50
30 -63 33 -103 28 -45 -6 -47 -5 -68 30 -20 34 -24 36 -74 36 -56 0 -104 18
-339 123 -156 71 -260 98 -356 96 -65 -2 -77 1 -112 25 -22 16 -57 34 -78 42
-37 13 -126 17 -150 7z"/>
<path d="M4411 6093 l-24 -20 58 -23 c132 -54 281 -174 389 -315 111 -144 172
-256 230 -424 30 -86 36 -119 39 -200 2 -81 6 -105 30 -156 18 -38 32 -89 38
-140 12 -111 11 -363 -2 -426 l-11 -53 -17 30 c-16 28 -16 27 -19 -73 -2 -83
1 -113 18 -160 17 -49 21 -80 20 -194 -1 -74 6 -257 16 -405 19 -318 15 -627
-11 -713 -13 -43 -32 -69 -101 -141 -46 -48 -84 -90 -84 -94 0 -12 91 -6 118
8 67 35 121 127 157 272 49 193 54 341 19 668 -25 248 -28 404 -9 731 19 344
17 416 -21 620 -19 102 -25 157 -20 203 5 58 3 69 -28 130 -18 37 -61 141 -96
232 -34 91 -80 208 -102 260 -39 91 -42 96 -89 118 -35 17 -61 41 -99 92 -28
37 -68 84 -89 103 -48 43 -136 77 -221 84 -55 5 -69 2 -89 -14z"/>
<path d="M5740 2143 c-19 -1 -69 -8 -110 -13 -41 -6 -146 -15 -233 -20 -87 -6
-231 -21 -320 -35 -231 -35 -413 -48 -557 -42 -117 5 -145 10 -236 47 -31 13
-84 7 -84 -10 0 -22 64 -79 112 -100 65 -28 144 -30 513 -13 172 8 321 21 440
38 125 19 195 25 230 20 86 -12 126 -8 260 25 l130 33 85 -16 c47 -9 126 -26
175 -37 80 -18 121 -20 363 -18 226 1 274 4 285 16 6 8 30 23 52 32 43 18 72
46 61 57 -13 13 -75 5 -133 -18 -91 -36 -262 -32 -573 13 -238 35 -388 49
-460 41z"/>
<path d="M3900 2048 c1 -31 41 -96 83 -135 86 -79 232 -133 417 -153 139 -15
227 -1 269 44 l22 23 -95 7 c-256 18 -498 91 -653 198 -27 18 -43 24 -43 16z"/>
<path d="M6048 1765 c-32 -18 -46 -54 -27 -66 17 -10 110 -23 161 -22 45 1 98
21 98 38 0 11 -159 66 -190 65 -8 -1 -27 -7 -42 -15z"/>
<path d="M5125 1671 c-72 -19 -120 -60 -96 -84 15 -15 89 -9 166 13 43 12 82
18 102 14 46 -9 83 2 83 25 0 10 -8 22 -17 26 -26 11 -203 15 -238 6z"/>
<path d="M5936 1597 c-16 -12 -16 -14 4 -35 24 -25 52 -28 107 -8 36 13 46 12
97 -5 48 -17 61 -18 84 -7 14 7 26 17 25 23 -3 15 -157 44 -234 45 -37 0 -73
-5 -83 -13z"/>
<path d="M5102 1530 c-12 -12 -22 -25 -22 -30 0 -14 131 -13 185 1 24 6 51 20
61 30 17 19 14 19 -93 19 -96 0 -112 -2 -131 -20z"/>
<path d="M6000 1499 c-26 -10 -60 -38 -60 -48 0 -3 63 -6 140 -6 113 0 139 3
135 13 -3 8 -5 15 -5 18 0 2 -13 10 -30 19 -33 17 -141 19 -180 4z"/>
<path d="M5128 1400 c-53 -10 -88 -36 -88 -66 0 -14 4 -23 8 -20 5 3 54 10
111 15 56 6 113 14 127 17 77 20 -70 70 -158 54z"/>
<path d="M6027 1350 c-64 -20 -82 -63 -20 -50 20 5 48 7 62 5 109 -17 113 -17
101 5 -19 36 -91 57 -143 40z"/>
<path d="M5084 1186 c-15 -39 60 -93 110 -80 42 10 37 30 -14 63 -51 33 -87
40 -96 17z"/>
<path d="M5980 1141 c0 -30 41 -70 78 -77 29 -6 32 -4 32 18 0 41 -36 78 -76
78 -27 0 -34 -4 -34 -19z"/>
</g>
</svg>
